<svg width="107" height="106" viewBox="0 0 107 106" fill="none" xmlns="http://www.w3.org/2000/svg">
<g id="Frame" clip-path="url(#clip0_140_398)">
<path id="Vector" d="M107 63.3848C105.431 61.5476 103.852 59.7198 102.301 57.8686C102.059 57.5839 101.897 57.2403 101.832 56.8729C100.688 48.7201 99.5589 40.5642 98.4437 32.4052C97.9738 28.974 97.504 25.5474 97.0341 22.1208C96.8799 21.0318 96.3549 20.0284 95.5468 19.278C94.7387 18.5276 93.6964 18.0757 92.5938 17.9976C90.3008 17.806 88.0219 19.1056 87.5426 21.3027C87.1291 23.2053 87.2043 25.2155 87.115 27.1789C87.115 27.3378 87.4251 27.5949 87.6413 27.6697C91.8983 29.1142 93.9893 32.1107 94.5343 36.5097C95.4976 44.3025 96.6582 52.0719 97.7389 59.8554C98.096 62.4218 98.5518 64.9976 98.7726 67.5687C98.9042 69.088 99.5855 70.1585 100.788 71.2104C101.94 70.0557 103.138 68.9057 104.265 67.709C105.205 66.7086 106.112 65.6614 107.028 64.633L107 63.3848Z" fill="white"/>
<path id="Vector_2" d="M40.9122 23.5561C40.8793 25.2391 41.6546 26.5386 42.7917 27.6839C48.5618 33.4152 54.3209 39.1558 60.069 44.9057C60.6176 45.4633 61.0152 46.15 61.2249 46.9019C61.4692 47.8368 60.9571 48.6549 60.0972 49.1551C59.7289 49.3938 59.2975 49.5177 58.858 49.5111C58.4186 49.5044 57.9911 49.3674 57.6303 49.1177C57.2302 48.8438 56.8587 48.5306 56.5214 48.1827C49.0567 40.7623 41.5919 33.3388 34.1272 25.9122C32.2477 24.0423 30.0158 23.5748 27.9577 24.6267C27.2987 24.9553 26.7211 25.4253 26.2665 26.0028C25.812 26.5803 25.4919 27.2508 25.3292 27.9662C25.1665 28.6816 25.1653 29.424 25.3257 30.1399C25.4861 30.8558 25.8041 31.5274 26.2568 32.1063C26.5992 32.5439 26.973 32.9563 27.3751 33.3404C34.7114 40.6455 42.0493 47.9506 49.3887 55.2556C49.7662 55.6127 50.102 56.011 50.3896 56.443C50.6737 56.9049 50.7878 57.4506 50.7124 57.9869C50.6369 58.5232 50.3767 59.0169 49.9761 59.3834C49.5965 59.745 49.1046 59.9674 48.5812 60.0141C48.0578 60.0608 47.534 59.9291 47.0957 59.6406C46.6947 59.3678 46.3231 59.0544 45.9868 58.7056C40.2168 52.9806 34.4498 47.2493 28.686 41.5119C26.8065 39.642 24.5793 39.1745 22.5166 40.2263C21.8601 40.5577 21.2853 41.0293 20.8332 41.6073C20.3811 42.1853 20.063 42.8555 19.9014 43.57C19.7398 44.2845 19.7388 45.0258 19.8984 45.7407C20.0581 46.4557 20.3745 47.1267 20.825 47.7059C21.1693 48.142 21.5446 48.5528 21.948 48.9354C27.6335 54.6012 33.3221 60.2639 39.0139 65.9234C40.2309 67.1342 40.4846 68.3403 39.7845 69.4388C39.624 69.7173 39.4055 69.9584 39.1437 70.146C38.8819 70.3337 38.5828 70.4635 38.2664 70.5268C37.9501 70.5901 37.6239 70.5854 37.3095 70.5131C36.9951 70.4407 36.6999 70.3024 36.4437 70.1073C36.1089 69.8584 35.7946 69.5833 35.5039 69.2846L25.2371 59.0656C23.7617 57.5977 22.0514 56.8497 19.9417 57.392C19.1758 57.6051 18.4725 57.9976 17.8903 58.5366C17.3082 59.0755 16.8643 59.7453 16.5956 60.49C16.3269 61.2346 16.2414 62.0324 16.3461 62.8167C16.4509 63.6009 16.7428 64.3488 17.1976 64.9978C17.4193 65.3084 17.6677 65.5994 17.94 65.8673C24.8659 72.599 31.6838 79.4475 38.7696 86.0062C44.1825 91.0222 50.1922 95.3183 56.9678 98.3942C58.9507 99.2918 61.0886 99.8434 63.1467 100.591C63.7668 100.794 64.3552 101.082 64.8946 101.447C66.6097 102.695 68.273 104.013 69.9646 105.29C71.2896 106.29 72.2059 106.248 73.3806 105.084C81.8884 96.6474 90.3932 88.2002 98.8948 79.742C100.131 78.5125 100.149 77.5355 99.017 76.1985C97.9597 74.955 96.9213 73.6929 95.7983 72.5101C95.0423 71.7058 94.5748 70.6753 94.4686 69.5791C92.9556 58.3597 91.4206 47.1403 89.8638 35.9209C89.6704 34.7291 89.0439 33.6494 88.1032 32.8868C87.1626 32.1241 85.9732 31.7316 84.7609 31.7837C83.5474 31.8355 82.3961 32.3322 81.5286 33.178C80.6611 34.0238 80.1388 35.159 80.0622 36.365C79.9212 39.0623 79.9071 41.7643 79.8038 44.4663C79.7286 46.3362 78.2579 47.533 76.712 46.9065C76.1508 46.6325 75.6482 46.2531 75.2319 45.7893C66.7491 37.3747 58.2725 28.9477 49.8022 20.5082C47.763 18.4794 45.3525 18.1007 43.1958 19.4751C42.4908 19.8985 41.9093 20.4978 41.5087 21.2136C41.1082 21.9294 40.9025 22.7369 40.9122 23.5561Z" fill="white"/>
<path id="Vector_3" d="M75.2416 39.4037C75.5141 37.4683 75.6457 35.5377 76.0873 33.6818C76.529 31.8259 77.84 30.3393 79.4141 29.0771C79.2167 28.8621 79.0664 28.6798 78.9019 28.5162L56.9634 6.68976C55.0839 4.81986 52.8285 4.35239 50.794 5.38083C50.1305 5.71229 49.5495 6.18661 49.0933 6.76934C48.637 7.35207 48.317 8.02858 48.1563 8.74974C47.9957 9.4709 47.9985 10.2186 48.1646 10.9385C48.3307 11.6585 48.6559 12.3326 49.1165 12.9119C49.3529 13.2133 49.6087 13.499 49.8824 13.7673C58.124 22.1258 66.3703 30.4811 74.6213 38.8334C74.8281 39.0437 75.0583 39.2354 75.2416 39.4037Z" fill="white"/>
<path id="Vector_4" d="M36.5843 21.5367C37.6885 17.7689 40.0191 15.5203 43.6982 14.4171C42.4766 13.2671 41.4428 12.1358 40.2541 11.2102C39.3232 10.5276 38.1796 10.1944 37.0256 10.2697C35.8717 10.345 34.7817 10.8239 33.9483 11.6216C33.0777 12.4331 32.53 13.5295 32.4058 14.71C32.2815 15.8905 32.5889 17.076 33.2717 18.0494C33.5284 18.4172 33.8177 18.7615 34.1363 19.0778C34.9022 19.8679 35.6869 20.6345 36.5843 21.5367Z" fill="white"/>
<path id="Vector_5" d="M6.62054 7.99854C5.45525 7.99854 4.74104 8.37719 4.36514 9.21397C4.14837 9.59453 4.06228 10.035 4.11995 10.4687C4.17761 10.9023 4.37587 11.3054 4.68465 11.6168C5.1049 12.0275 5.56265 12.3984 6.05199 12.7247C7.55089 13.7952 9.0404 14.8751 10.5722 15.8942C11.7469 16.6749 13.0108 16.4785 13.7298 15.4875C13.9176 15.2466 14.0531 14.9695 14.1277 14.6738C14.2024 14.3781 14.2144 14.0702 14.1632 13.7696C14.1119 13.469 13.9985 13.1823 13.8301 12.9276C13.6616 12.6729 13.4419 12.4557 13.1847 12.29C11.371 10.9436 9.51497 9.66275 7.64957 8.39589C7.32701 8.21603 6.9806 8.08226 6.62054 7.99854Z" fill="white"/>
<path id="Vector_6" d="M18.9689 11.0697C20.651 10.8172 21.7317 9.44285 21.2384 7.94226C20.5054 5.7124 19.6455 3.51527 18.7433 1.34618C18.6431 1.08533 18.4918 0.846878 18.2981 0.644691C18.1045 0.442504 17.8724 0.280602 17.6154 0.168392C17.3583 0.0561822 17.0814 -0.00409989 16.8008 -0.00895827C16.5201 -0.0138166 16.2413 0.0368496 15.9805 0.140095C15.7115 0.219935 15.4616 0.353178 15.2459 0.531781C15.0302 0.710384 14.853 0.930642 14.7252 1.17925C14.5974 1.42785 14.5216 1.69964 14.5024 1.97821C14.4831 2.25678 14.5208 2.53635 14.6131 2.80003C15.3931 5.13741 16.2436 7.42803 17.235 9.67191C17.4982 10.275 18.3721 10.6115 18.9689 11.0697Z" fill="white"/>
<path id="Vector_7" d="M5.60089 20.5317C4.52017 20.5317 3.44416 20.5317 2.36815 20.5317C1.00551 20.5645 0.0892525 21.3638 0.0187712 22.5325C0.00232697 22.8257 0.0451107 23.1192 0.144596 23.3956C0.244081 23.672 0.398251 23.9258 0.597992 24.142C0.797732 24.3581 1.03899 24.5323 1.30752 24.6541C1.57605 24.7759 1.86639 24.8429 2.1614 24.8512C4.51078 24.9587 6.86015 24.9634 9.24242 24.926C9.78959 24.9199 10.3123 24.6996 10.6975 24.3129C11.0827 23.9262 11.2993 23.4042 11.3005 22.8598C11.333 22.5997 11.3123 22.3358 11.2395 22.0839C11.1667 21.832 11.0434 21.5974 10.877 21.3943C10.7105 21.1911 10.5045 21.0236 10.2712 20.9019C10.0379 20.7802 9.78225 20.7067 9.51965 20.686C8.2071 20.6049 6.89112 20.594 5.57739 20.6533L5.60089 20.5317Z" fill="white"/>
</g>
<defs>
<clipPath id="clip0_140_398">
<rect width="107" height="106" fill="white" transform="matrix(-1 0 0 1 107 0)"/>
</clipPath>
</defs>
</svg>
