<svg width="37" height="38" viewBox="0 0 37 38" fill="none" xmlns="http://www.w3.org/2000/svg">
<g id="Frame" clip-path="url(#clip0_231_2304)">
<path id="Vector" fill-rule="evenodd" clip-rule="evenodd" d="M36.3136 19.6507C36.3151 18.3856 36.2025 17.1229 35.9771 15.8779H18.543V23.01H28.5031C28.2964 24.137 27.8626 25.2105 27.228 26.1658C26.5933 27.1211 25.771 27.9384 24.8106 28.5684V33.1957H30.7905C34.2895 29.9858 36.3084 25.2577 36.3084 19.6472L36.3136 19.6507Z" fill="#3E82F1"/>
<path id="Vector_2" fill-rule="evenodd" clip-rule="evenodd" d="M18.5478 37.6685C23.5445 37.6685 27.7339 36.0184 30.7953 33.2027L24.8154 28.5754C23.1574 29.6819 21.0374 30.3367 18.5478 30.3367C13.7273 30.3367 9.64768 27.092 8.19367 22.7339H2.00977V27.5124C3.55022 30.5665 5.91267 33.1337 8.83315 34.9272C11.7536 36.7207 15.1171 37.6698 18.5478 37.6685Z" fill="#32A753"/>
<path id="Vector_3" fill-rule="evenodd" clip-rule="evenodd" d="M8.19313 22.7339C7.41905 20.4625 7.41905 18.0001 8.19313 15.7287V10.9502H2.00922C0.714974 13.5202 0.0410156 16.3559 0.0410156 19.2313C0.0410156 22.1067 0.714974 24.9424 2.00922 27.5124L8.19313 22.7339Z" fill="#F9BB00"/>
<path id="Vector_4" fill-rule="evenodd" clip-rule="evenodd" d="M18.5482 8.12578C21.2662 8.12578 23.7053 9.05681 25.623 10.8841L30.93 5.59499C27.7256 2.61953 23.5362 0.793947 18.5517 0.793947C15.121 0.792675 11.7575 1.74181 8.83706 3.53531C5.91657 5.3288 3.55412 7.89602 2.01367 10.9501L8.19758 15.7286C9.65159 11.3705 13.7312 8.12578 18.5517 8.12578H18.5482Z" fill="#E74133"/>
</g>
<defs>
<clipPath id="clip0_231_2304">
<rect width="36.2718" height="36.8763" fill="white" transform="translate(0.0410156 0.793945)"/>
</clipPath>
</defs>
</svg>
