<svg width="105" height="119" viewBox="0 0 105 119" fill="none" xmlns="http://www.w3.org/2000/svg">
<path id="Vector" d="M52.5 58.0488C60.1589 58.0488 67.5041 54.9909 72.9198 49.5477C78.3354 44.1046 81.3779 36.7221 81.3779 29.0244C81.3779 21.3266 78.3354 13.9442 72.9198 8.50105C67.5041 3.05792 60.1589 0 52.5 0C44.8411 0 37.4959 3.05792 32.0802 8.50105C26.6646 13.9442 23.6221 21.3266 23.6221 29.0244C23.6221 36.7221 26.6646 44.1046 32.0802 49.5477C37.4959 54.9909 44.8411 58.0488 52.5 58.0488ZM52.5 72.561C23.5644 72.561 0 92.0654 0 116.098C0 117.723 1.27063 119 2.88779 119H102.112C103.729 119 105 117.723 105 116.098C105 92.0654 81.4356 72.561 52.5 72.561Z" fill="#FFFDFD"/>
</svg>
